# xmcd
#
# Track frame offsets:
#	150
#	29475
#	57080
#	83302
#	110795
#	130165
#	143767
#	163075
#	192590
#	200707
#	230470
#	253635
#
# Disc length: 3766 seconds
#
# Revision: 1
# Processed by: cddbd v1.5.1PL0 Copyright (c) Steve Scherf et al.
# Submitted via: CDex 1.50Beta5
#
DISCID=a80eb40c
DTITLE=梯剛之 - プレイズ・モーツアルト
DYEAR=1900
DGENRE=
TTITLE0=・ソナタ10
TTITLE1=・ソナタ10
TTITLE2=・ソナタ10
TTITLE3=・ソナタ4
TTITLE4=・ソナタ4
TTITLE5=・ソナタ4
TTITLE6=・ソナタ15
TTITLE7=・ソナタ15
TTITLE8=・ソナタ15
TTITLE9=・ソナタ12
TTITLE10=・ソナタ12
TTITLE11=・ソナタ12
EXTD=
EXTT0=
EXTT1=
EXTT2=
EXTT3=
EXTT4=
EXTT5=
EXTT6=
EXTT7=
EXTT8=
EXTT9=
EXTT10=
EXTT11=
PLAYORDER=
